Coordinates
version=1
nRows=19
nColumns=27
inDegrees=yes

Units are S.I. units (second, meters, Newtons, ...)
If the header above contains a line with 'inDegrees', this indicates whether rotational values are in degrees (yes) or radians (no).

endheader
time	pelvis_rotation	pelvis_tilt	pelvis_list	pelvis_tx	pelvis_ty	pelvis_tz	hip_flexion_r	hip_adduction_r	hip_rotation_r	knee_angle_r	knee_rotation_r	knee_adduction_r	knee_angle_r_beta	ankle_angle_r	subtalar_angle_r	mtp_angle_r	hip_flexion_l	hip_adduction_l	hip_rotation_l	knee_angle_l	knee_rotation_l	knee_adduction_l	knee_angle_l_beta	ankle_angle_l	subtalar_angle_l	mtp_angle_l
      4.78500000	     11.15389672	    -35.92781064	      6.23574558	     -0.02644231	      0.43759070	     -1.14719113	    138.57045557	    -49.28508470	     32.28943830	    107.54001201	      0.00000000	      9.86294806	      1.87692729	     18.42949038	      0.00000000	      0.00000000	    130.95613731	    -30.69046691	     18.13704039	    105.68769737	      0.00000000	     -9.95307070	      1.84459830	      8.53769116	      0.00000000	      0.00000000
      4.79000000	     11.22769356	    -35.78616309	      6.30770211	     -0.02608675	      0.43623387	     -1.14737777	    138.78281877	    -49.27796338	     32.66620389	    107.70820819	      0.00000000	      9.86334337	      1.87986286	     18.47208473	      0.00000000	      0.00000000	    130.97192845	    -30.62659945	     18.19546138	    105.89164828	      0.00000000	     -9.95315014	      1.84815791	      8.58068004	      0.00000000	      0.00000000
      4.79500000	     11.31721858	    -35.70604893	      6.37315526	     -0.02580071	      0.43494152	     -1.14755396	    139.00840881	    -49.28180475	     33.00576558	    107.86035869	      0.00000000	      9.86373834	      1.88251839	     18.57730563	      0.00000000	      0.00000000	    131.04783824	    -30.54693945	     18.25495831	    106.07920953	      0.00000000	     -9.95324735	      1.85143147	      8.63495039	      0.00000000	      0.00000000
      4.80000000	     11.33462178	    -35.61110000	      6.35637641	     -0.02552618	      0.43368544	     -1.14763762	    139.13280317	    -49.27174465	     33.22655868	    108.01644243	      0.00000000	      9.86395970	      1.88524257	     18.60041890	      0.00000000	      0.00000000	    131.15224715	    -30.48840348	     18.40354614	    106.26348109	      0.00000000	     -9.95335971	      1.85464762	      8.66600472	      0.00000000	      0.00000000
      4.80500000	     11.30724569	    -35.54347118	      6.24569670	     -0.02528322	      0.43250774	     -1.14762040	    139.14044477	    -49.28453721	     33.29457158	    108.16900659	      0.00000000	      9.86400708	      1.88790531	     18.72432076	      0.00000000	      0.00000000	    131.33621241	    -30.42639321	     18.64376087	    106.43518978	      0.00000000	     -9.95348542	      1.85764450	      8.65868271	      0.00000000	      0.00000000
      4.81000000	     11.37694494	    -35.51221437	      6.29963630	     -0.02509753	      0.43131661	     -1.14775360	    139.40890401	    -49.27832916	     33.59786951	    108.31340111	      0.00000000	      9.86429527	      1.89042547	     18.70511501	      0.00000000	      0.00000000	    131.46089052	    -30.36963442	     18.70723013	    106.60086934	      0.00000000	     -9.95360339	      1.86053616	      8.69983462	      0.00000000	      0.00000000
      4.81500000	     11.40463988	    -35.41727789	      6.30773499	     -0.02484527	      0.43017139	     -1.14788558	    139.54526697	    -49.27753651	     33.83289181	    108.44753990	      0.00000000	      9.86455721	      1.89276664	     18.77597995	      0.00000000	      0.00000000	    131.54110706	    -30.33195834	     18.80526564	    106.77380439	      0.00000000	     -9.95370228	      1.86355444	      8.71789457	      0.00000000	      0.00000000
      4.82000000	     11.41078121	    -35.43977578	      6.22103704	     -0.02476291	      0.42909313	     -1.14786676	    139.66773028	    -49.29573550	     33.91203318	    108.57912464	      0.00000000	      9.86467082	      1.89506322	     18.88341577	      0.00000000	      0.00000000	    131.79413607	    -30.24615600	     19.01591543	    106.91870147	      0.00000000	     -9.95382371	      1.86608337	      8.71919767	      0.00000000	      0.00000000
      4.82500000	     11.44179654	    -35.39188853	      6.26551447	     -0.02461136	      0.42804784	     -1.14799013	    139.87807013	    -49.26929540	     34.16445632	    108.69088700	      0.00000000	      9.86501365	      1.89701384	     18.86256664	      0.00000000	      0.00000000	    131.90494830	    -30.24706412	     19.06835111	    107.06819143	      0.00000000	     -9.95394651	      1.86869246	      8.68687527	      0.00000000	      0.00000000
      4.83000000	     11.47271927	    -35.38395939	      6.27770950	     -0.02450177	      0.42703242	     -1.14807750	    140.10561582	    -49.26192857	     34.37642689	    108.81285551	      0.00000000	      9.86520531	      1.89914260	     18.83356769	      0.00000000	      0.00000000	    132.06584409	    -30.22698025	     19.15273362	    107.20727180	      0.00000000	     -9.95406828	      1.87111987	      8.68485656	      0.00000000	      0.00000000
      4.83500000	     11.49558511	    -35.41035855	      6.26169857	     -0.02444250	      0.42606312	     -1.14813959	    140.30527562	    -49.26503232	     34.52755547	    108.92258386	      0.00000000	      9.86546929	      1.90105772	     18.90667281	      0.00000000	      0.00000000	    132.27485693	    -30.19211831	     19.26594984	    107.33867008	      0.00000000	     -9.95417632	      1.87341321	      8.67681248	      0.00000000	      0.00000000
      4.84000000	     11.53085428	    -35.42977473	      6.27459995	     -0.02440343	      0.42515564	     -1.14821596	    140.54248221	    -49.25984459	     34.71916979	    109.02426989	      0.00000000	      9.86566199	      1.90283247	     18.85768624	      0.00000000	      0.00000000	    132.45755119	    -30.17052044	     19.34027332	    107.46190326	      0.00000000	     -9.95429893	      1.87556403	      8.64050225	      0.00000000	      0.00000000
      4.84500000	     11.55460014	    -35.45425895	      6.26903728	     -0.02437340	      0.42431587	     -1.14825616	    140.73012912	    -49.26114035	     34.85940099	    109.12204293	      0.00000000	      9.86578495	      1.90453894	     18.90007302	      0.00000000	      0.00000000	    132.63487486	    -30.14621627	     19.42617358	    107.56910743	      0.00000000	     -9.95440619	      1.87743510	      8.63637459	      0.00000000	      0.00000000
      4.85000000	     11.58442256	    -35.50729501	      6.28221992	     -0.02439872	      0.42347532	     -1.14835663	    140.99560179	    -49.24566272	     35.04194661	    109.21530294	      0.00000000	      9.86607456	      1.90616663	     18.88111521	      0.00000000	      0.00000000	    132.84359743	    -30.12781397	     19.49774453	    107.68459789	      0.00000000	     -9.95447997	      1.87945079	      8.59872273	      0.00000000	      0.00000000
      4.85500000	     11.65703100	    -35.54242084	      6.35618850	     -0.02444793	      0.42273294	     -1.14848757	    141.29083258	    -49.24079972	     35.27782773	    109.28596609	      0.00000000	      9.86625541	      1.90739993	     18.85364399	      0.00000000	      0.00000000	    132.99332330	    -30.11785277	     19.47885036	    107.78330775	      0.00000000	     -9.95455151	      1.88117360	      8.56418390	      0.00000000	      0.00000000
      4.86000000	     11.64261833	    -35.61763411	      6.28294385	     -0.02453848	      0.42206300	     -1.14850050	    141.42938143	    -49.24631715	     35.29607086	    109.35758756	      0.00000000	      9.86624472	      1.90864996	     18.84128257	      0.00000000	      0.00000000	    133.24335133	    -30.08312475	     19.62062131	    107.87028414	      0.00000000	     -9.95461689	      1.88269162	      8.52391288	      0.00000000	      0.00000000
      4.86500000	     11.67308255	    -35.66001328	      6.29445768	     -0.02459928	      0.42141949	     -1.14858784	    141.63903440	    -49.24068122	     35.43149860	    109.42811302	      0.00000000	      9.86635322	      1.90988087	     18.81987258	      0.00000000	      0.00000000	    133.41526321	    -30.06669484	     19.66548629	    107.95539426	      0.00000000	     -9.95467956	      1.88417708	      8.48690994	      0.00000000	      0.00000000
      4.87000000	     11.71975984	    -35.71133962	      6.32387873	     -0.02473309	      0.42086355	     -1.14867876	    141.85600830	    -49.23168241	     35.57805158	    109.47651499	      0.00000000	      9.86641437	      1.91072564	     18.77262897	      0.00000000	      0.00000000	    133.56911666	    -30.03794809	     19.68487474	    108.02250207	      0.00000000	     -9.95470645	      1.88534833	      8.43738897	      0.00000000	      0.00000000
      4.87500000	     11.75200784	    -35.78581916	      6.32936487	     -0.02486496	      0.42038100	     -1.14879198	    142.04516572	    -49.23393375	     35.66781110	    109.51587702	      0.00000000	      9.86639542	      1.91141264	     18.84958092	      0.00000000	      0.00000000	    133.74983634	    -30.00927649	     19.71625416	    108.08948305	      0.00000000	     -9.95473095	      1.88651737	      8.39970168	      0.00000000	      0.00000000
